<?xml version="1.0" encoding="UTF-8" standalone="no"?>
<svg width="640" height="640" viewBox="0 0 640 640.00003" xmlns="http://www.w3.org/2000/svg" xmlns:svg="http://www.w3.org/2000/svg">
<rect style="fill:none;fill-opacity:1;stroke:none;stroke-width:3.99999;stroke-linecap:round;paint-order:stroke fill markers" width="640" height="639.99994"/>
<path style="fill:#6800db;stroke-width:1;fill-opacity:1" d="m 445.01186,512.82862 c -12.10396,13.46623 -29.341,31.06078 -47.70398,48.66348 -24.89373,23.86303 -21.38066,22.77779 -32.9543,10.0586 -35.61004,-39.13459 -85.07133,-82.0837 -106.54011,-92.7768 -27.8977,-13.89521 -40.68723,-6.98293 -44.92934,24.73451 -3.55694,26.59438 -12.66081,40.31625 -29.89789,44.57436 -38.60674,9.53711 -101.671875,-36.8354 -102.270172,-74.28634 -0.306691,-19.19716 11.341712,-30.18799 41.044052,-39.1483 22.39276,-6.75522 30.52534,-13.03067 30.05024,-23.04539 -0.53392,-11.25491 -11.6644,-23.56719 -37.23559,-41.36081 C 94.007286,355.9301 79.51807,347.43786 45.288077,329.60328 32.14354,322.7547 21.433378,316.92064 21.438301,316.61307 c 0.01105,-0.69148 20.147205,-25.71455 31.314699,-38.92961 22.278279,-26.36302 48.47942,-52.23491 63.02008,-62.39191 7.9735,-5.56969 19.82541,-10.17772 24.98071,-9.73139 5.3951,0.46712 11.75524,5.25665 14.31366,10.79396 1.11617,2.41583 3.08207,7.97368 4.37133,12.36283 7.11558,24.22401 24.22643,31.50948 50.33454,21.30682 13.35878,-5.22044 22.59065,-11.45232 34.33748,-23.12048 16.86375,-16.7508 24.01124,-30.5026 23.0332,-43.91678 -0.98781,-13.54796 -12.64596,-21.06014 -35.11729,-22.73809 -14.75826,-1.10203 -19.95687,-2.24558 -24.90718,-5.47825 -7.75927,-5.06699 -7.30053,-11.834 1.50172,-23.70973 6.76943,-9.13312 31.25953,-30.22985 51.59609,-44.546277 15.15646,-10.66979 39.58906,-26.904332 40.56131,-26.963375 0.30022,-0.01811 7.93525,6.264668 17.02305,14.00997 25.17519,21.456178 34.48375,28.686382 52.7729,40.956762 18.74074,12.57334 27.75609,17.0897 38.93784,19.48527 7.63769,1.63629 11.66571,0.69959 15.65193,-3.62692 3.35222,-3.63832 4.55623,-8.27085 4.94916,-18.93716 0.60161,-16.332364 8.3433,-24.591492 23.57266,-25.417055 25.87389,-1.402593 69.63026,23.418345 80.99324,46.224845 7.58939,15.23263 0.60243,25.14849 -22.38171,31.2355 -4.7747,1.26451 -10.50302,2.97759 -12.72174,3.80505 -9.75477,3.63798 -13.02861,9.62563 -9.04249,16.68408 4.15274,7.35348 9.18303,11.99445 23.76497,21.8923 19.52325,13.25188 46.36939,27.50613 87.48456,46.40521 9.12831,4.19595 16.68632,7.89103 16.77431,8.20162 0.26833,0.94689 -11.88002,25.8039 -21.15945,43.25699 -12.00633,22.58195 -31.27628,50.2648 -41.10171,58.85925 -12.53343,10.96321 -21.10886,12.90034 -30.04,6.73373 -5.64627,-3.89853 -8.39784,-8.02104 -14.57093,-21.78745 -6.66119,-14.8549 -15.55551,-23.84831 -26.0775,-26.45552 -11.1851,-2.77148 -27.19241,1.92543 -41.48752,12.23681 -6.21988,4.48653 -9.94638,8.1647 -17.43861,17.22983 -11.39486,13.78716 -16.56121,23.38791 -19.44862,36.29086 -5.87599,26.25822 8.03054,41.39758 40.30453,43.31092 16.44116,0.97472 21.73314,2.15397 27.64727,6.1618 13.47771,9.13347 9.64426,24.9687 -13.99079,55.95571 -7.06939,9.26829 -14.37878,18.5591 -16.18214,20.56543 z"/>
</svg>
